# xmcd
#
# Track frame offsets:
# 150
# 21321
# 38734
# 59832
# 82154
# 100258
# 119669
# 139654
# 156567
# 173480
# 193117
# 206154
#
# Disc length: 3090 seconds
#
# Revision: 0
# Processed by: cddbd v1.5.2PL0 Copyright (c) Steve Scherf et al.
# Submitted via: Audion 3.0.2 (http://www.panic.com/audion/)
#
DISCID=b50c100c
DTITLE=Rusted Root - Welcome to My Party
DYEAR=1900
DGENRE=
TTITLE0=Union7
TTITLE1=Welcome to My Party
TTITLE2=Women Got My Money
TTITLE3=Blue Diamonds
TTITLE4=Weave
TTITLE5=Artificial Winter
TTITLE6=Too Much
TTITLE7=Sweet Mary
TTITLE8=Sweet Mary
TTITLE9=Hands Are Law
TTITLE10=Cry
TTITLE11=People of My Village
EXTD=
EXTT0=
EXTT1=
EXTT2=
EXTT3=
EXTT4=
EXTT5=
EXTT6=
EXTT7=
EXTT8=
EXTT9=
EXTT10=
EXTT11=
PLAYORDER=
